PathFileType	4	(X/Y/Z)	C:/Users/opensim2020/Desktop/walking_exp_matlab/subject06_walking18_straight_01.trc																																																																																																																																											
DataRate	CameraRate	NumFrames	NumMarkers	Units	OrigDataRate	OrigDataStartFrame	OrigNumFrames																																																																																																																																							
100	100	4	47	mm	100	1018	396																																																																																																																																							
Frame#	Time	LFHD			RFHD			LBHD			RBHD			C7			T10			CLAV			STRN			RBAK			LSHO			LUPA			LELB			LFRM			LWRA			LWRB			LFIN			RSHO			RUPA			RELB			RFRM			RWRA			RWRB			RFIN			LASI			RASI			LPSI			RPSI			LTHI			LKNE			LTIB			LANK			LHEE			LTOE			RTHI			RKNE			RTIB			RANK			RHEE			RTOE			*39			*40			*41			*42			*43			*44			*45			*46		
		X1	Y1	Z1	X2	Y2	Z2	X3	Y3	Z3	X4	Y4	Z4	X5	Y5	Z5	X6	Y6	Z6	X7	Y7	Z7	X8	Y8	Z8	X9	Y9	Z9	X10	Y10	Z10	X11	Y11	Z11	X12	Y12	Z12	X13	Y13	Z13	X14	Y14	Z14	X15	Y15	Z15	X16	Y16	Z16	X17	Y17	Z17	X18	Y18	Z18	X19	Y19	Z19	X20	Y20	Z20	X21	Y21	Z21	X22	Y22	Z22	X23	Y23	Z23	X24	Y24	Z24	X25	Y25	Z25	X26	Y26	Z26	X27	Y27	Z27	X28	Y28	Z28	X29	Y29	Z29	X30	Y30	Z30	X31	Y31	Z31	X32	Y32	Z32	X33	Y33	Z33	X34	Y34	Z34	X35	Y35	Z35	X36	Y36	Z36	X37	Y37	Z37	X38	Y38	Z38	X39	Y39	Z39	X40	Y40	Z40	X41	Y41	Z41	X42	Y42	Z42	X43	Y43	Z43	X44	Y44	Z44	X45	Y45	Z45	X46	Y46	Z46	X47	Y47	Z47
																																																																																																																																														
1	0	-813.72858	1676.52185	1380.3866	-802.05042	1660.92566	1510.90491	-948.7099	1626.7041	1390.12561	-935.24414	1616.01111	1518.51367	-953.95587	1468.83301	1444.505	-1000.31854	1140.97009	1454.30054	-847.42072	1386.32007	1431.46204	-817.83618	1208.46863	1419.71204	-1025.01135	1299.54004	1531.11023	-920.28784	1423.06519	1278.23767	-930.88568	1222.51282	1201.80493	-933.74683	1110.24207	1188.52661	-895.19672	964.76154	1164.9303	-822.56036	857.96509	1206.31702	-881.66467	846.15039	1168.37793	-829.47351	771.77594	1166.47058	-873.61475	1420.4502	1595.37646	-893.19226	1220.56433	1683.15051	-876.64813	1099.34851	1691.95215	-855.62274	980.32117	1705.96509	-796.71863	842.50702	1669.05701	-846.55994	842.79889	1714.35364	-808.60608	766.94116	1711.75464	-835.68658	976.81006	1327.74854	-820.98822	978.00256	1546.81323	-991.14862	1005.17969	1366.0116	-974.56482	1008.97375	1533.94019	-857.24805	663.94464	1278.10425	-828.18884	504.29529	1303.93579	-975.20227	302.58994	1307.6084	-1065.1355	155.25635	1341.62891	-1104.21997	156.74261	1391.69055	-957.41681	61.39007	1327.91321	-887.10724	643.00262	1594.97864	-890.27997	517.2652	1570.04126	-948.69513	257.07529	1556.57288	-968.58429	72.99186	1502.95166	-1009.33411	50.79065	1458.54236	-813.33545	36.75094	1500.90918	-906.98029	1715.92212	1449.36548	NaN	NaN	NaN	NaN	NaN	NaN	NaN	NaN	NaN	NaN	NaN	NaN	NaN	NaN	NaN	NaN	NaN	NaN	NaN	NaN	NaN
2	0.01	-809.29877	1676.526	1380.81116	-797.45874	1660.99976	1511.33765	-944.21271	1626.69031	1390.80334	-930.56244	1616.08289	1519.16785	-949.45703	1468.84143	1445.25049	-995.6767	1140.91418	1455.26941	-843.71997	1386.12891	1432.01917	-813.19659	1208.58765	1420.38354	-1020.31677	1299.53027	1532.16956	-916.05023	1423.02795	1278.93677	-927.34998	1222.47217	1202.29956	-930.72858	1110.23743	1189.38647	-893.52179	964.36145	1165.52539	-822.20435	856.69299	1206.76685	-881.41754	845.68433	1168.74084	-830.2038	770.63794	1166.73523	-868.84479	1420.50354	1596.03259	-886.99188	1220.505	1683.71948	-870.06348	1099.42456	1692.4563	-848.82196	980.46234	1706.76038	-790.24347	842.44098	1670.12366	-839.97595	842.97144	1715.47205	-802.02527	767.03186	1713.16394	-829.47711	977.58936	1328.74829	-816.44775	977.9375	1547.9353	-986.25031	1005.24756	1366.70813	-970.15607	1008.75293	1534.6759	-849.55316	664.90906	1278.37976	-819.89032	505.4801	1304.5863	-960.72571	299.12604	1307.40576	-1045.4187	148.4583	1340.96631	-1084.52551	148.29601	1390.99036	-933.95508	59.08307	1326.94788	-883.66913	642.67688	1595.12268	-887.56873	517.00885	1570.05945	-947.32928	257.03464	1556.56128	-968.43439	73.11516	1502.79175	-1009.30017	50.95177	1458.38745	-813.31067	36.72683	1500.87415	-902.39026	1715.93445	1449.93091	NaN	NaN	NaN	NaN	NaN	NaN	NaN	NaN	NaN	NaN	NaN	NaN	NaN	NaN	NaN	NaN	NaN	NaN	NaN	NaN	NaN
3	0.02	-804.87012	1676.45056	1381.17114	-792.90668	1660.96582	1511.63062	-939.81354	1626.65222	1391.41309	-925.91968	1616.07019	1519.75842	-944.91235	1468.78113	1445.97449	-990.99188	1140.8053	1456.10315	-838.3526	1386.4718	1432.59204	-808.50739	1208.62854	1421.04163	-1015.5766	1299.45728	1533.17798	-911.84448	1422.94434	1279.59851	-924.01007	1222.39746	1203.14233	-927.78656	1110.20361	1190.17615	-891.84961	963.95258	1166.21814	-821.90698	855.44916	1207.24963	-881.26038	845.19543	1169.15784	-830.8045	769.55359	1167.14209	-863.97186	1420.51599	1596.61987	-881.07306	1220.38342	1684.14172	-863.97308	1099.52722	1692.92249	-842.69971	980.48438	1707.33923	-783.90454	842.32257	1671.01123	-833.48468	843.08148	1716.60571	-795.64056	767.07623	1714.34912	-824.78241	977.8407	1329.88232	-812.2915	977.61658	1548.71521	-981.35443	1005.28235	1367.30042	-965.82294	1008.45557	1535.33813	-842.51422	666.12	1278.43347	-811.77191	506.56326	1305.08875	-946.30884	295.54483	1307.0697	-1025.20349	141.57664	1340.36865	-1064.22632	139.79652	1390.45813	-910.1828	56.96107	1325.98645	-880.19318	642.31006	1595.1991	-884.50592	516.59937	1570.18799	-945.97803	256.99814	1556.5105	-968.36945	73.19128	1502.54016	-1009.04102	50.87041	1458.00122	-813.28455	36.68977	1500.79456	-897.89838	1715.90686	1450.43872	NaN	NaN	NaN	NaN	NaN	NaN	NaN	NaN	NaN	NaN	NaN	NaN	NaN	NaN	NaN	NaN	NaN	NaN	NaN	NaN	NaN
4	0.03	-800.4599	1676.39807	1381.55603	-788.30994	1660.97925	1512.02051	-935.3941	1626.54993	1391.99011	-921.33569	1616.02966	1520.29541	-940.36462	1468.7218	1446.62891	-986.31335	1140.71069	1456.91528	-834.63361	1386.09607	1433.00574	-803.76758	1208.65283	1421.74658	-1010.88324	1299.4104	1534.11499	-907.59119	1422.82019	1280.13855	-920.52759	1222.17334	1203.85425	-924.97113	1110.09204	1190.93835	-890.745	963.61914	1166.91199	-821.60675	854.30853	1207.81885	-881.02454	844.5954	1169.71497	-831.42328	768.50305	1167.63818	-859.06989	1420.3916	1597.19739	-875.51459	1220.32605	1684.67749	-857.76123	1099.30591	1693.36743	-836.44958	980.48846	1708.00769	-777.76471	842.22687	1671.92407	-827.32764	843.18054	1717.54248	-789.38782	767.07617	1715.58557	-820.00476	978.13293	1330.96423	-807.98004	977.47241	1549.75439	-976.46313	1005.27307	1367.87402	-961.49506	1008.09613	1535.90637	-835.1485	666.8064	1278.8363	-803.97284	507.56897	1305.42334	-931.65015	291.80145	1306.87976	-1004.61731	134.89722	1339.87158	-1043.28735	131.38808	1390.02332	-886.04736	55.04935	1325.1864	-876.81415	641.98639	1595.33618	-881.64722	516.30737	1570.39038	-944.70154	256.88998	1556.56177	-968.19952	73.30963	1502.54785	-1009.09119	51.08633	1457.84045	-813.30627	36.65177	1500.69702	-893.39142	1715.8634	1450.88904	NaN	NaN	NaN	NaN	NaN	NaN	NaN	NaN	NaN	NaN	NaN	NaN	NaN	NaN	NaN	NaN	NaN	NaN	NaN	NaN	NaN
